<?xml version="1.0" standalone="no"?>
<!DOCTYPE svg PUBLIC "-//W3C//DTD SVG 20010904//EN"
 "http://www.w3.org/TR/2001/REC-SVG-20010904/DTD/svg10.dtd">
<svg version="1.0" xmlns="http://www.w3.org/2000/svg"
 width="700.000000pt" height="700.000000pt" viewBox="0 0 700.000000 700.000000"
 preserveAspectRatio="xMidYMid meet">
<metadata>
Created by potrace 1.14, written by Peter Selinger 2001-2017
</metadata>
<g transform="translate(0.000000,700.000000) scale(0.100000,-0.100000)"
fill="#000000" stroke="none">
<path d="M1600 6297 c-29 -9 -93 -12 -180 -11 -74 1 -152 -2 -173 -7 -56 -15
-110 -78 -137 -158 -83 -252 -8 -480 205 -624 84 -56 106 -83 119 -144 6 -26
3 -34 -24 -56 -31 -26 -90 -127 -90 -153 0 -24 -76 -178 -123 -250 -68 -104
-98 -129 -153 -126 -167 7 -373 -205 -594 -613 -127 -234 -229 -459 -265 -585
-33 -114 -39 -155 -38 -280 0 -119 3 -144 26 -211 85 -248 279 -422 627 -563
121 -50 425 -131 525 -141 11 -1 49 -6 85 -10 112 -14 405 -8 497 9 11 2 42 7
69 11 92 11 152 28 218 62 45 23 59 25 190 25 210 0 318 -14 501 -64 138 -38
212 -71 395 -174 135 -76 246 -118 725 -279 178 -59 337 -117 409 -149 17 -8
74 -32 126 -54 309 -130 808 -373 1090 -530 25 -14 74 -41 110 -60 36 -20 79
-44 95 -54 17 -9 48 -27 70 -39 137 -74 348 -234 455 -344 61 -63 90 -81 170
-105 87 -26 125 -13 182 63 68 93 119 241 134 393 15 142 9 427 -10 564 -40
281 -83 492 -111 554 -42 92 -108 167 -372 422 -492 478 -795 779 -807 804
-14 28 -13 48 3 106 14 53 5 119 -24 169 -13 22 -57 74 -97 116 -40 42 -106
113 -147 158 l-75 83 -41 -7 c-49 -7 -75 9 -130 84 -29 41 -36 60 -40 112 -3
34 -7 71 -11 83 -9 30 -66 98 -164 197 -159 160 -223 196 -293 165 -52 -24
-71 -26 -93 -13 -12 6 -39 22 -61 34 -22 12 -43 28 -46 36 -3 7 5 35 18 63 12
27 21 56 20 64 -2 8 -4 18 -4 21 -1 6 -165 170 -282 281 -149 142 -152 144
-213 103 -20 -14 -42 -25 -49 -25 -7 0 -50 63 -95 139 -46 77 -91 146 -100
154 -77 70 -190 9 -325 -176 -57 -78 -70 -87 -130 -87 -109 0 -284 -184 -491
-515 -43 -70 -89 -137 -103 -149 -13 -12 -55 -32 -92 -44 -187 -61 -329 -38
-441 70 -53 52 -61 63 -101 147 -36 75 -57 167 -54 231 2 25 3 72 4 106 1 58
4 64 69 156 160 224 228 451 192 638 -26 135 -119 259 -235 314 -136 64 -238
84 -315 63z m165 -219 c-2 -18 -4 -44 -4 -58 l-2 -25 -24 28 c-31 35 -32 61
-2 75 33 16 36 15 32 -20z m1715 -1432 c0 -2 -8 -10 -17 -17 -16 -13 -17 -12
-4 4 13 16 21 21 21 13z m-100 -99 c0 -2 -10 -12 -22 -23 l-23 -19 19 23 c18
21 26 27 26 19z m-90 -80 c0 -2 -15 -16 -32 -33 l-33 -29 29 33 c28 30 36 37
36 29z m610 -260 c0 -2 -10 -12 -22 -23 l-23 -19 19 23 c18 21 26 27 26 19z
m-460 -481 c0 -2 -8 -10 -17 -17 -16 -13 -17 -12 -4 4 13 16 21 21 21 13z"/>
</g>
</svg>
