<svg id="Layer_1" data-name="Layer 1" xmlns="http://www.w3.org/2000/svg" viewBox="0 0 338.64 274.44"><defs><style>.cls-1{fill:#bbbdbf;}.cls-1,.cls-2{fill-rule:evenodd;opacity:0.2;}.cls-2{fill:#231f20;}</style></defs><path d="M200.69,108.55a31.06,31.06,0,0,1-3.85,15.58,35.2,35.2,0,0,1-9.65,11.13,37,37,0,0,1,5.54,3.58,32.12,32.12,0,0,1,5,4.85,33.9,33.9,0,0,1,4.05,6.21,29.16,29.16,0,0,1,2.56,7.49,7.93,7.93,0,0,0,.27,1.89c0,.63,0,1.26.07,1.89s.06,1.39.06,2.29a35.45,35.45,0,0,1-2.63,14.44,30.17,30.17,0,0,1-6.74,9.84,31.92,31.92,0,0,1-9.11,6.14,54.16,54.16,0,0,1-17.88,4.66c-2.47.18-4.25.27-5.33.27H140.78a6.91,6.91,0,0,1-5.12-1.76q-1.75-1.74-1.76-5.66V84.94q0-3.64,1.62-5.33A8.78,8.78,0,0,1,140,77.25a92,92,0,0,1,11.4-1.35c3.56-.18,7.13-.27,10.73-.27q16.46,0,26.17,7a28.85,28.85,0,0,1,11.88,18.89A37,37,0,0,1,200.69,108.55ZM184,104.9a15.82,15.82,0,0,0-3.38-7.48A14.45,14.45,0,0,0,174,93.3a36.34,36.34,0,0,0-10-1.55q-5.94-.21-13.9.2v36.7h9.72a31.87,31.87,0,0,0,7.08-1,28.82,28.82,0,0,0,8.09-3.31,21.65,21.65,0,0,0,6.62-6.2,16.45,16.45,0,0,0,2.76-9.72v-1.89a4.43,4.43,0,0,0-.27-1.62Zm4.18,55.32a15.57,15.57,0,0,0-3.51-7.69,19.87,19.87,0,0,0-6.27-4.86,29.58,29.58,0,0,0-7.49-2.49,37.63,37.63,0,0,0-7-.74H150.09v38.45h11.2c.81,0,2.05,0,3.71-.14a38.45,38.45,0,0,0,5.53-.74,38,38,0,0,0,6.21-1.82,21.65,21.65,0,0,0,5.8-3.31,16.41,16.41,0,0,0,4.32-5.33,17.11,17.11,0,0,0,1.68-8v-1.75a6.4,6.4,0,0,0-.13-1.48Z"/><path class="cls-1" d="M8.82,129.24S20.67,106.9,46.68,99.41s37.19-27.52,56.47-45.53S157,13.74,202.78,7.22,374-22.48,329.09,73.12s-45.49,52.61-75,134.41-58.83,55.57-93.93,64.52-28.48-8.4-54.55-34.6S61.3,220,31.83,213.11-9.71,174.75,8.82,129.24Z"/><path class="cls-2" d="M337.45,28.43c2.84,10.76.76,25.27-8.36,44.69-44.87,95.6-45.49,52.61-75,134.41s-58.83,55.57-93.93,64.52-28.48-8.39-54.55-34.6S61.3,220,31.83,213.11C9.1,207.81-3.29,187.85.76,158.1c2.92,18.24,14.12,30.34,31.07,34.3,29.47,6.87,47.7-1.86,73.77,24.34s19.45,43.56,54.55,34.6,64.41,17.28,93.93-64.52,30.14-38.81,75-134.41A106.89,106.89,0,0,0,337.45,28.43Z"/></svg>