<?xml version="1.0" encoding="utf-8"?>
<!-- Generator: Adobe Illustrator 26.2.1, SVG Export Plug-In . SVG Version: 6.00 Build 0)  -->
<svg version="1.1" id="Layer_1" xmlns="http://www.w3.org/2000/svg" xmlns:xlink="http://www.w3.org/1999/xlink" x="0px" y="0px"
	 viewBox="0 0 364.1 364.1" style="enable-background:new 0 0 364.1 364.1;" xml:space="preserve">
<style type="text/css">
	.st0{fill:#0A0A0D;}
	.st1{fill:#34373D;}
	.st2{fill:#D37A55;}
	.st3{fill:#4D80BC;}
	.st4{fill:#3A5980;}
	.st5{fill:#243A59;}
	.st6{fill:#2B2C30;}
	.st7{fill:#66A6DF;}
	.st8{fill:#8690A6;}
	.st9{fill:#BB6D4E;}
	.st10{fill:#2D3035;}
	.st11{fill:#3D4656;}
	.st12{fill:#82A4D9;}
	.st13{fill:#4E515D;}
	.st14{fill:#4B83AD;}
</style>
<path class="st0" d="M73.7,37.1c3.5,0,7,0.7,10.5-0.7c3-1.2,6.2,0,9.2,1c5.8,1.8,11.2,4.2,14.8,9.7c3.9,6.1,4.9,12.6,3.8,19.5
	c-1.6,9.8-6.4,18.2-12.4,25.9c-0.9,1.1-1.3,2.2-1.3,3.6c0,4-0.8,8.3,0.1,12.1c2.7,11.7,10.9,22.4,26,19.4c2-0.4,4-1.2,6-1.7
	c3.8-0.9,5.4-4,7.2-7c5-8.2,10.2-16.3,16.8-23.2c1.6-1.7,3.4-3.2,5.3-4.5c1.5-1.1,3.3-2.1,5.1-1.7c2.9,0.7,4.1-1.1,5.5-3
	c2.9-4.1,5.8-8,10-10.8c4.1-2.7,7.4-1.9,9.9,2.4c2.4,4.2,4.9,8.2,7.4,12.4c0.6,1,1.1,1.1,1.9,0.4c0.3-0.2,0.4-0.5,0.7-0.7
	c3.4-2.5,4.5-2.4,7.5,0.6c5.6,5.4,11.2,10.8,16.8,16.2c3,2.9,3.4,4.3,1.2,7.7c-1.3,2.1-1.2,3.3,1.2,4.2c0.8,0.3,1.6,0.9,2.3,1.4
	c1.9,1.3,3.5,1.8,5.7,0.3c2.3-1.6,5-0.9,7.2,0.7c5.8,4,10.4,9.4,15.1,14.5c2.2,2.4,2.8,5.5,2.6,8.6c-0.1,1.7,0.3,2.9,1.4,4
	c0.8,0.8,1.5,1.8,2.2,2.7c1.4,1.8,2.7,3.7,5.6,2.4c1.2-0.5,2.3,0.2,3.2,1.3c4,4.8,8.4,9.4,12.8,13.8c3.6,3.6,5.1,8.2,3.4,13
	c-1.2,3.4-0.1,5.2,2.1,7.3c7,6.8,13.9,13.7,20.9,20.6c10,9.8,20.2,19.4,30.1,29.2c4.6,4.6,8.8,9.9,10,16.3c2.9,15.5,6,30.9,5.1,46.8
	c-0.5,8.5-1.4,17-6,24.6c-0.6,1-1.3,1.9-2,2.9c-1.9,2.5-3.9,4-7.4,3c-3.5-0.9-6.6-1.8-9.2-4.7c-9.6-10.6-21.8-17.5-34.1-24.3
	c-8.8-4.9-17.8-9.5-26.7-14.1c-8.2-4.2-16.5-8.1-24.9-11.8c-10.5-4.7-21.1-9.3-32-13c-9.1-3-18.2-6.1-27.3-9.3
	c-5.6-2-11.3-4-16.4-7.2c-16.3-10.2-34.2-13.4-53.1-12.3c-1.1,0.1-2,0.4-3,1c-4.7,2.9-10.2,3.3-15.5,4c-12.7,1.6-25.4,1.5-37.9-1.5
	c-12.6-3-25-6.8-35.8-14.3C8.7,213.2,3.5,197,9.9,177.4c3.4-10.5,8.6-20.3,13.8-30c4.7-8.7,9.8-17,16.8-24.1
	c2.7-2.7,5.6-5.1,9.3-6.5c1.3-0.5,2.9-1.1,4-0.7c2.7,0.8,4-0.6,5.4-2.3c3.9-4.8,6.9-10,9-15.9c1.3-3.7,2.3-7.7,6.1-10
	c0.9-0.5,0.5-1.7,0.3-2.6c-0.7-2.8-2.4-4.9-4.9-6.3c-10.4-5.8-15.6-17.1-13.2-28.8c0.6-2.8,1.2-5.5,2.7-8c2.2-3.5,5.1-5.5,9.4-5.1
	C70.2,37.2,71.9,37.1,73.7,37.1z M187.6,110c0.2-0.2,0.5-0.5,0.2-0.7c-0.4-0.2-0.4,0.3-0.5,0.5c-0.2,0.2-0.3,0.3-0.5,0.5
	c-0.5,0.3-1,0.5-1.4,0.9c-11.2,10.4-23.8,19-36.5,27.5c-10.8,7.3-22,13.9-33.3,20.4c-1.8,1-1.6,1.8-0.6,3.2c0.7,1,1.6,1.1,2.6,0.9
	c4-0.7,8,0,12.1,0c6,0,11.9,0.8,17.8,1.8c8.6,1.4,17.1,3.2,25.4,6c1,0.3,1.8,0.6,2.8-0.3c6.2-5.5,12.2-11.2,17.9-18
	c-1.9,0.7-3.4,0.8-4.8,0.5c-7.3-1.3-14.2-4.1-20.9-7.2c-2.1-1-4.1-2.8-3.9-5.9c0.2-3.2,1.7-5.6,3.8-7.9c3.2-3.4,7.2-5.8,10.1-9.5
	c3.1-4.1,6.7-7.8,9.2-12.3C187.2,110.3,187.4,110.2,187.6,110z M97.7,136.3c-0.1-0.1-0.3-0.3-0.4-0.2c-0.3,0.1-0.2,0.4,0,0.6
	c4.7,6.9,9.4,13.8,14.1,20.8c0.8,1.3,1.4,1.3,2.8,0.6c11.1-6.3,21.8-13,32.5-19.9c1.7-1.1,3.6-2,5.1-3.7c-0.7,0-1.1-0.1-1.5,0
	c-6.9,1.6-13.8,2.9-20.8,3.7C118.7,139.2,108.1,140.1,97.7,136.3z M299.7,300.6c2.4,2.5,5.7,3.5,8.6,5.2c8.3,4.7,16.2,9.8,22.8,16.8
	c2.8,3.3,5.5,6.6,10.4,6.9c1.8,0.1,3.1,0,4.5-1.4c1.4-1.4,2.1-3.1,3.1-4.8c1.6-2.6,1.6-3.2-1-4.7c-9.2-5.6-18.4-11.3-27.6-16.8
	c-3.7-2.2-7.1-4.8-11.3-6.2c-0.3-0.7-0.9-0.9-1.5-1.3c-6.6-3.8-13.2-7.7-19.9-11.4c-11.9-6.5-23.8-13-36.1-18.9
	c-10.1-4.8-20.2-9.6-30.8-13.3c-12.3-4.3-24.9-7.6-37.9-8.9c-3.1-0.3-6.1-0.3-9.2,0.5c-1,0.3-2.2,0.7-2.4,1.9
	c-0.3,1.4,1,1.8,1.9,2.2c3.6,1.6,7.2,3.3,11,4.7c6.7,2.5,13.4,5.2,20.4,7c0.4,0.2,0.9,0.5,1.3,0.6c11.8,3.5,23.2,8,34.4,13
	c7.3,3.3,14.7,6.5,21.9,10c9.3,4.5,18.5,9.3,27.8,14C293.5,297.3,296.3,299.6,299.7,300.6z M166.7,242c0.2,0.3,0.5,0.7,0.9,0.4
	c-0.2-0.3-0.3-0.6-0.5-0.9c-2.9-4.1-5.7-8.3-8.6-12.4c-0.3-0.6-0.6-1.2-1-1.7c-25.7-37.4-51.4-74.8-77.1-112.2
	c-3.3-4.8-6.7-9.6-10.2-14.8c-0.5,1.1-0.8,1.8-1.2,2.6c-2.7,5.5-5.6,10.9-10.3,14.8c-2.8,2.3-5.2,4.9-7.3,7.7
	c-2.4,3.3-4.5,6.8-6.9,10.1c-1.1,1.5-1.2,2.8-0.4,4.5c7.7,17.1,14.8,34.5,20.7,52.3c2.7,8.1,4.9,16.3,6.5,24.8
	c0.1,0.7-0.3,2.1,1.3,1.9c4.6,0.8,9.3,2,14,2.4c10.2,0.9,19.3,4.5,27.4,10.9c1,0.8,2,0.7,3,0.5c7.7-0.8,15.4-0.3,23.1,0.9
	C149.3,235.4,158.1,238.5,166.7,242z M19.2,195.2c0-2.3-0.1-4.7,0.2-7c1-7.5,3.7-14.6,7.1-21.4c3.2-6.5,6.8-12.7,9.8-19.3
	c3.9-8.6,8.8-16.5,14.5-24c1.1-1.5,2.2-3,3.3-4.6c-3.4,0-6.7,1.7-9.9,4.6c-6.9,6.5-12,14.4-16.6,22.5c-3.8,6.7-7.2,13.6-10.5,20.6
	c-3.2,6.8-6.1,13.8-6.8,21.4c0,1.2,0,2.5-0.1,3.7c-0.5,10.3,3.6,18.8,10.8,25.7c6.1,5.9,13.5,9.7,21.4,12.9c8.3,3.3,16.9,5.4,25.6,7
	c4.7,0.9,9.5,1.7,14.3,1.6c6.1-0.2,12.2-0.8,18.3-1.5c3.8-0.4,7.6-0.8,11.1-2.5c1.2-0.5,1.5-1.1,0.3-1.8c-5.8-3.7-11.5-7.7-18.7-8.7
	c-10.5-1.5-20.9-3.1-31.2-5.4c-9.8-2.2-19.8-4.1-29.3-7.4C24.9,209.1,20.1,203.6,19.2,195.2z M21.7,198.2c1.9,6.1,6.1,9.9,12.1,11.8
	c10.9,3.4,22.2,5.8,33.4,8.1c2.5,0.5,2.3-0.8,1.9-2.5c-1.4-8.6-4.1-16.9-6.9-25.1c-3.5-10.4-7.3-20.6-11.6-30.7
	c-2.8-6.5-5.5-12.9-8.4-19.8c-0.6,1.1-1,1.7-1.4,2.4c-1.8,3.7-3.5,7.5-5.5,11.2c-5.3,10-10.7,19.9-13.4,31
	C20.9,189.2,20.6,193.7,21.7,198.2z M317.2,298.1c0.9,1.3,2.5,1.6,3.7,2.4c9,5.5,18.1,11,27.1,16.5c3.3,2,3.3,1.9,4.1-1.9
	c2.2-9.7,1.8-19.5,1.4-29.4c0-0.4-0.3-0.8-0.4-1.1c-0.2-6.4-1.5-12.6-2.6-18.9c-0.4-2.2-0.7-4.3-3.8-3.7c-0.5,0.1-1.1-0.4-1.6-0.6
	c-3.7-1.9-7-4.5-9.5-7.8c-1.5-1.9-3.1-3.1-5.8-3c-3.2,0-6.4-0.6-9.6-1.1c-13.1-2.2-25.2-7.2-37-13c-11-5.4-21.4-11.8-31.6-18.4
	c-10.3-6.7-19.9-14.4-30-21.3c-15.7-10.6-32.6-18.7-50.8-24.2c-16.7-5-33.7-7.9-51.2-7.2c-0.6,0-1.6-0.1-1.9,0.3
	c-0.5,0.7,0.2,1.4,0.6,1.9c5.7,8.3,11.4,16.5,17,24.8c0.5,0.8,1.1,1.3,2.2,1.4c3.4,0.4,6.9,0.8,10.3,1.5c16.5,3,32.2,7.9,45.9,18
	c4.6,3.4,9.2,6.9,12.2,11.9c1.7,2.9,0.5,4.8-2.8,5c-3.2,0.2-6.3-0.4-9.2-1.6c-6.4-2.7-13-4.6-19.6-6.5c-7.1-2-14.3-3.8-22-5.4
	c1.4,2.1,2.6,3.8,3.8,5.4c4.5,6.5,9,13,13.4,19.5c0.6,0.9,1.1,1.1,2,0.5c1.7-1.2,3.7-1.4,5.7-1.5c4.3-0.1,8.6,0.2,12.9,0.9
	c13.5,2.2,26.5,6,39.2,11.1c13.3,5.4,26.2,11.8,38.9,18.4c9.5,4.9,18.9,10,28.2,15.4C303.3,290.4,310.3,294.2,317.2,298.1z
	 M258.4,174.4c-1.1,0-1.8,0.1-2.5,0c-7.4-0.7-12-4.5-10.4-12.7c0.1-0.3,0.1-0.7,0.3-1c0.7-1.4,0.4-2.3-0.9-3.4
	c-4.6-4-9.2-8.2-13.6-12.4c-1.5-1.5-2.4-1.2-3.8,0.2c-3.9,4-8,7.8-13.3,9.9c-4.7,1.9-8.4,0-9.8-4.9c-0.5-1.8-0.7-3.7-1.1-5.9
	c-8.2,10.1-17,19.3-26.7,28.1c8.7,2.8,16.6,6.2,24.4,10c11.3,5.6,22,12.4,32,20.1c1.3,1,1.9,0.9,2.9-0.4c3.2-4.1,6.6-8.1,9.9-12.2
	C250,184.8,254,179.7,258.4,174.4z M190.1,151.4c3.4,0.2,6.1-1.3,8.3-4c4.2-5,8.4-10.1,12.2-15.4c4.6-6.3,9.4-12.4,13-19.4
	c0.7-1.3,0.6-2.3-0.5-3.3c-6-5.7-12.1-11.4-18-17.3c-1.5-1.4-2.1-0.9-3,0.4c-2.8,4.1-5.5,8.3-8.4,12.3c-6.8,9.5-13.1,19.4-22.5,26.8
	c-1.5,1.1-2.7,2.5-3.7,4c-3,4.2-2.2,7.5,2.6,9.5c4.7,2,9.5,3.7,14.2,5.3C186.1,151.1,188,151.5,190.1,151.4z M294.3,226.2
	c4.4,0.2,8.5,1,12.4,2.5c11.7,4.7,20.8,12.9,29.1,22c2.6,2.8,5.1,5.7,8.4,7.7c1.4,0.8,3,2.5,4.5,1.4c1.5-1.1,0.6-3.2,0.1-4.8
	c-1.9-6.2-5.8-11.2-10.2-15.7c-5.9-6-12.1-11.5-18.2-17.4c-7.1-6.8-14-13.7-21-20.5c-0.6-0.6-1.1-1.2-2.1-1.2
	c-4.4-0.1-7.9-2.4-11.5-4.4c-3.1-1.7-3-1.8-5.3,1c-6,7.7-12.1,15.4-18.2,23c-1,1.2-1.1,1.7,0.4,2.6c4.8,3.1,9.8,5.9,14.9,8.6
	c1,0.6,1.8,0.7,2.9-0.2C284.5,227.6,289.4,226.6,294.3,226.2z M296.2,198.1c-3.4-3.8-7.2-6.3-10-9.8c-0.3-0.4-0.6-0.2-1,0.1
	c-4.2,3.1-5.5,3.1-9.8,0.4c-4.7-3.1-9.2-6.5-13.1-10.6c-0.8-0.9-1.8-1.6-1.7-3.2c-0.5,0.3-0.7,0.4-0.8,0.6
	c-4.5,5.5-8.9,10.9-13.3,16.4c-3.1,3.8-6.1,7.6-9.2,11.4c-0.5,0.7-1.3,1.2,0,2.1c6.7,4.7,13.4,9.4,20.3,13.9c1.3,0.9,2,0.9,3-0.5
	c6.7-8.6,13.6-17.1,20.3-25.7c1.2-1.5,1.9-1.5,3.4-0.5C287.7,195,291.2,197.3,296.2,198.1z M147.3,122.6c0.7-0.1,1.1-0.1,1.4-0.2
	c10.2-2.9,20.4-5.8,30.6-8.8c0.7-0.2,1.4-0.5,2-1c5.5-4.7,10.8-9.6,15.4-15.2c0.9-1.1,1-1.9,0.3-3.1c-3.2-5.2-6.4-10.5-9.5-15.8
	c-1.1-1.9-2.6-2.3-4.6-1.4c-2.1,1-3.8,2.4-5.2,4.2c-5.3,6.6-10.7,13.1-15.9,19.8C156.4,107.8,151.2,114.5,147.3,122.6z M95.2,117
	c1.4-3.6,1.4-3.6,0.6-7.1c-0.1-0.6-0.1-1.3-0.1-2c0-4.2,0.1-8.5,0-12.7c0-1.4,0.4-2.5,1.3-3.6c5.9-7.5,10.7-15.5,12.4-25
	c1.4-8-0.2-15.2-5.9-21.2c-2.1-2.2-6.8-2.5-9.2-0.7c-0.6,0.4-0.6,0.9-0.6,1.5c-0.1,9.1-3.5,17-8.6,24.2c-0.6,0.8-1,1.5-0.5,2.7
	c4.4,10.3,7.3,21,7.7,32.2C92.3,109.3,93.2,113.2,95.2,117z M138.3,195.7c0,1,0.6,1.5,1,2.1c3.3,4.9,6.8,9.7,10,14.6
	c1,1.6,2.2,2.4,4.1,2.8c13.8,2.7,27.4,6.3,40.5,11.4c2.1,0.8,4.3,1.4,6.5,1.7c1.5,0.2,3.5,1,4.4-0.6c0.7-1.4-0.9-2.7-1.9-3.8
	c-2.9-3.3-6.2-6.2-9.8-8.9c-11.2-8.4-24-13-37.4-16.2C149.9,197.4,144.1,196.3,138.3,195.7z M85.5,119.5c1.4-6.6,2.9-12.7,4.6-18.7
	c0.1-0.4,0.1-0.8,0-1.2c-0.9-5.1-1.9-10.3-3.4-15.3c-1.4-4.5-2.9-9-5.2-13.2c-4.5-8.2,0.4-19,6.7-24.6c2.5-2.2,5.5-3.7,8.7-4.9
	c-2.5-1-4.9-1.9-7.4-2.4c-2.9-0.6-5.7-0.3-8.1,2c-6.3,6-8.6,13.2-7.5,21.6c0.6,4.6,1.9,9.1,3.3,13.5c1,3.2,1.7,6.4,0.9,9.8
	c-0.9,4.1-2,8.2-3.9,12c-1.1,2.1-1.2,3.8,0.4,5.9C78.3,108.8,81.7,113.9,85.5,119.5z M176,116.3c-11.9,3.4-23.7,6.9-35.6,10.3
	c-7.5,2.2-14.9,4.6-22.8,5c-11.5,0.6-20.5-4.9-24.8-15.5c-0.9-2.3-1.5-4.7-2.2-7c-1.4,1.3-1.6,2.9-2,4.5c-2,7.7-1.8,7.6,2.5,14.3
	c3,4.7,7.1,7.2,12.4,8.3c3.9,0.8,7.9,1.1,11.9,1.1c9.3-0.1,18.5-1.4,27.7-3.2c4.8-0.9,10-1.2,14.2-3.5
	C164.1,126.8,170.1,121.6,176,116.3z M205.4,144.3c-0.1,1.6,0.2,3.1,0.5,4.6c1.1,4.7,3.8,6.2,8.3,4.4c3-1.3,5.5-3.4,8-5.4
	c1.4-1.1,1.9-2,1.4-3.9c-1.2-4.6,3.4-11.5,7.4-10.7c3.4,0.7,4.1-1.2,5.3-3.3c0.7-1.1,0.6-1.8-0.6-2.6c-4-2.9-8.4-5-12.5-7.7
	c-1.4-0.9-1.7,0.1-2.2,0.9c-4.4,6.7-9.1,13.1-14.1,19.3C205.7,141.3,205.1,142.7,205.4,144.3z M257.3,144.2c-0.2-3.3-1.1-6-3.2-8.1
	c-3.9-4-8.1-7.9-12.1-11.8c-1.1-1-1.8-1.2-2.3,0.7c-1.3,5.7-4.1,10.5-9,13.9c-1.7,1.2-1.5,2-0.2,3.2c5.3,4.7,10.6,9.4,15.7,14.2
	c1.2,1.1,1.7,0.7,2.6-0.1c3-3.1,5.4-6.7,7.9-10.2C257.2,145.3,257.3,144.6,257.3,144.2z M331.3,248.8c-4.6-4.9-9.2-8.9-14.3-12.3
	c-7.1-4.8-14.7-8.5-23.6-8.2c-4.6,0.2-8.8,1.5-12.6,4.8C296.8,241.1,312.9,247.7,331.3,248.8z M286.3,177.9c0.2-3-1.2-5.5-3.3-7.6
	c-4.2-4.2-8.4-8.5-12.2-13.1c-0.4-0.5-0.8-1.3-1.5-1c-0.7,0.3-0.4,1.2-0.3,1.8c0.1,4.4-1.1,8.3-3.7,11.9c-0.9,1.3-1.5,2.8-2.3,4.2
	c-0.6,1-0.5,1.8,0.5,2.6c1.8,1.5,3.4,3.2,5.2,4.7c3.2,2.6,6.4,5.3,10.2,7c2.3,1,4.5,0.4,5.4-1.9C285.2,183.7,286.5,181,286.3,177.9z
	 M76.4,82.3c0.2-2.2-0.4-4.2-1.1-6.1c-2.9-8.6-4.5-17.4-3.6-26.5c0.6-6,0.5-5.9-5.1-8.6c-2.1-1-3.3-0.4-4.4,1.2
	c-0.5,0.7-1,1.5-1.4,2.4c-4.1,9.8-3.3,22.7,7.7,30.6C71.4,77.3,74.7,78.8,76.4,82.3z M257.6,148c-2,2.8-4.3,5-3.8,8.9
	c0.5,3.5-1.7,6.1-5.1,7.4c-1.6,0.6-2.1,1.2-1.6,2.9c1.2,3.6,4.3,4.6,7.4,5.4c3,0.8,5.4-0.6,7.2-2.8c1.5-1.8,2.8-3.9,3.8-6
	c0.9-1.8,1.7-3.9,0.3-5.7C263.3,154.6,260.4,151.4,257.6,148z M136.3,126.1c4.7-1.7,9.9-1.4,10.9-7.3c0-0.2,0.3-0.4,0.4-0.6
	c5.1-8.5,11.2-16.3,17.4-24c0.4-0.5,1.4-1,0.8-1.8c-0.5-0.6-1.4-0.4-2.1-0.1c-2.8,1-5,2.9-7.1,5c-5.2,5.3-9.4,11.4-13.4,17.6
	C140.9,118.3,138.8,121.9,136.3,126.1z M81.6,64.1c-0.2,1.4,0.4,2.6,0.6,3.9c0.1,0.5,0.2,1.2,0.9,1.3c0.6,0,0.8-0.5,1-0.9
	c1.9-2.9,3.4-6,4.9-9.2c1.4-2.9,0.6-5.3-0.8-7.7c-0.7-1.3-1.5-1.1-2.2,0C83.5,55.2,81.9,59.4,81.6,64.1z M97.4,114.6
	c-0.6,1.6-2,3-1.1,4.7c3.2,5.6,8.1,8.7,14.3,9.9C104.4,126,100.4,120.9,97.4,114.6z M69.2,40c1.7,1.2,2.9,2,4.1,2.9
	c0.8,0.6,1.4,2.2,2.6,1.4c1.2-0.9,2.2-2.2,3-3.5c0.4-0.6-0.4-0.7-0.9-0.7C75.2,40,72.4,40,69.2,40z M232.7,134.5
	c-4.7-0.4-8.7,3.9-8.3,8.5c0.1,0.6-0.1,1.5,0.8,1.5c0.7,0,1.1-0.7,1.1-1.5c0.1-3.8,1.9-6.3,5.6-7.5
	C232.2,135.4,232.3,135,232.7,134.5z M252.7,155.2c-0.3,0.1-0.6,0.2-0.6,0.3c-1.1,2.3-1.6,5.1-4.4,6.2c-0.4,0.2-0.4,0.9,0,1.3
	c0.4,0.5,0.9,0.2,1.3,0C251.7,161.6,253,159.1,252.7,155.2z M91.8,46.1c-3.7,1.6-3.7,2.3-0.5,6.3C91.6,50.3,92.1,48.3,91.8,46.1z
	 M75.1,91.2c-3.1,2.7-4.4,6.6-3.1,8C73,96.5,74.1,93.9,75.1,91.2z M238.3,123.8c0-0.9-0.4-1.5-1.1-1.3c-1,0.2-2.5,0.4-2.5,1.5
	c-0.1,1.1,1.3,1.7,2.3,1.8C238.2,125.8,237.8,124.4,238.3,123.8z"/>
<path class="st1" d="M317.2,298.1c-6.9-3.9-13.9-7.8-20.8-11.7c-9.3-5.3-18.7-10.4-28.2-15.4c-12.7-6.6-25.6-13-38.9-18.4
	c-12.6-5.1-25.7-8.9-39.2-11.1c-4.3-0.7-8.5-1-12.9-0.9c-2,0-4,0.2-5.7,1.5c-0.9,0.7-1.4,0.4-2-0.5c-4.4-6.5-8.9-13-13.4-19.5
	c-1.2-1.7-2.3-3.4-3.8-5.4c7.7,1.5,14.9,3.3,22,5.4c6.6,1.9,13.2,3.7,19.6,6.5c2.9,1.2,6,1.8,9.2,1.6c3.3-0.2,4.5-2.1,2.8-5
	c-3-5-7.6-8.5-12.2-11.9c-13.7-10.1-29.4-15-45.9-18c-3.4-0.6-6.9-1.1-10.3-1.5c-1-0.1-1.6-0.7-2.2-1.4c-5.7-8.3-11.4-16.5-17-24.8
	c-0.4-0.6-1.2-1.3-0.6-1.9c0.3-0.4,1.2-0.3,1.9-0.3c17.5-0.7,34.5,2.2,51.2,7.2c18.2,5.5,35.1,13.6,50.8,24.2
	c10.2,6.9,19.8,14.6,30,21.3c10.2,6.7,20.6,13,31.6,18.4c11.8,5.8,23.9,10.8,37,13c3.2,0.5,6.4,1.2,9.6,1.1c2.7,0,4.3,1.1,5.8,3
	c2.6,3.3,5.8,5.9,9.5,7.8c0.5,0.3,1.1,0.7,1.6,0.6c3.1-0.6,3.4,1.4,3.8,3.7c1,6.3,2.4,12.5,2.6,18.9c-1.8-0.1-1.7,1.7-2.3,2.6
	c-4.8,7.3-12.2,9.4-20.2,10.4c-4,0.5-8,0.3-11.9-0.4C318,297.1,317.3,297.1,317.2,298.1z"/>
<path class="st2" d="M72.6,219.2c-1.6,0.1-1.2-1.2-1.3-1.9c-1.6-8.4-3.8-16.6-6.5-24.8c-5.9-17.8-13-35.2-20.7-52.3
	c-0.8-1.7-0.7-3,0.4-4.5c2.4-3.3,4.5-6.8,6.9-10.1c2.1-2.9,4.4-5.4,7.3-7.7c4.7-3.9,7.6-9.4,10.3-14.8c0.4-0.7,0.7-1.5,1.2-2.6
	c3.5,5.1,6.9,9.9,10.2,14.8c25.7,37.4,51.4,74.8,77.1,112.2c0.4,0.5,0.7,1.1,1,1.7c-0.2,0.3-0.6,0.4-0.8,0.1c-1.6-1.8-4-1.9-6.1-2.4
	c-11-2.8-22.1-5.6-33.3-7.5c-7.6-1.3-15.1-2.5-22.8-3.1c-6.7-0.5-13.4-0.8-20.1-0.6C71.9,215.8,71.8,216,72.6,219.2z"/>
<path class="st3" d="M258.4,174.4c-4.3,5.4-8.4,10.5-12.5,15.6c-3.3,4.1-6.7,8.1-9.9,12.2c-1,1.3-1.6,1.4-2.9,0.4
	c-10-7.7-20.7-14.4-32-20.1c-7.7-3.9-15.7-7.2-24.4-10c9.6-8.9,18.5-18,26.7-28.1c0.4,2.2,0.6,4.1,1.1,5.9c1.3,4.9,5,6.8,9.8,4.9
	c5.3-2.1,9.4-5.9,13.3-9.9c1.4-1.4,2.2-1.7,3.8-0.2c4.4,4.2,9,8.4,13.6,12.4c1.2,1.1,1.5,2,0.9,3.4c-0.1,0.3-0.2,0.6-0.3,1
	c-1.6,8.1,3,11.9,10.4,12.7C256.5,174.4,257.2,174.4,258.4,174.4z"/>
<path class="st1" d="M21.7,198.2c-1.2-4.5-0.8-9.1,0.3-13.5c2.7-11.1,8-21,13.4-31c2-3.7,3.6-7.5,5.5-11.2c0.3-0.7,0.8-1.4,1.4-2.4
	c2.9,6.9,5.7,13.3,8.4,19.8c4.3,10.1,8.2,20.3,11.6,30.7c2.8,8.2,5.4,16.5,6.9,25.1c-5.2-1.3-10.4-2.8-15.5-4.5
	c-10.1-3.3-20.1-6.9-29.4-12.2C23.5,198.6,22.7,198.2,21.7,198.2z M44.2,162c0.1-1.3-0.8-2.1-2.1-2c-1.7,0.1-2.3,1.6-2.3,3
	c0,1.2,1,2.3,2.2,2.1C43.5,164.9,44.2,163.8,44.2,162z M40.1,196c-0.1,1.2,0.8,2.1,2.1,2c1.8-0.1,2.3-1.6,2.3-3c0-1.2-1-2.3-2.2-2.1
	C40.9,193.1,40.1,194.3,40.1,196z M61.7,201.1c-0.1-1.3-0.6-2.4-2.1-2.3c-1.7,0.1-2.4,1.5-2.4,3c0,1.2,0.9,2,2.1,1.9
	C61,203.7,61.6,202.7,61.7,201.1z M36.7,178.1c0-1.6-0.5-2.7-1.9-2.7c-1.7-0.1-2.4,1.2-2.5,2.5c-0.1,1.2,0.5,2.3,1.9,2.4
	C35.9,180.3,36.6,179.3,36.7,178.1z M50.8,178.2c-1.7,0.2-2.1,1.4-2.2,2.8c0,1.4,0.7,2.3,2.1,2.2c1.6-0.1,2.2-1.4,2.3-2.8
	C53.2,179,52.2,178.3,50.8,178.2z"/>
<path class="st4" d="M190.1,151.4c-2,0.1-4-0.3-5.7-0.9c-4.8-1.7-9.6-3.4-14.2-5.3c-4.8-2-5.6-5.3-2.6-9.5c1.1-1.5,2.3-2.9,3.7-4
	c9.4-7.4,15.6-17.3,22.5-26.8c2.9-4,5.6-8.2,8.4-12.3c0.9-1.3,1.6-1.9,3-0.4c5.9,5.8,12,11.5,18,17.3c1.1,1,1.2,2,0.5,3.3
	c-3.6,7-8.4,13.1-13,19.4c-3.8,5.3-8,10.4-12.2,15.4C196.2,150.1,193.5,151.6,190.1,151.4z"/>
<path class="st1" d="M294.3,226.2c-4.8,0.4-9.8,1.4-13.9,4.7c-1.1,0.9-1.9,0.8-2.9,0.2c-5-2.8-10-5.5-14.9-8.6
	c-1.4-0.9-1.3-1.4-0.4-2.6c6.1-7.6,12.1-15.3,18.2-23c2.2-2.9,2.1-2.8,5.3-1c3.6,2,7.1,4.3,11.5,4.4c1,0,1.5,0.7,2.1,1.2
	c7,6.8,14,13.7,21,20.5c6,5.8,12.3,11.4,18.2,17.4c4.4,4.5,8.4,9.5,10.2,15.7c0.5,1.7,1.3,3.8-0.1,4.8c-1.4,1.1-3-0.6-4.5-1.4
	c-3.3-2-5.8-4.9-8.4-7.7c-8.3-9.2-17.4-17.3-29.1-22C302.8,227.2,298.7,226.4,294.3,226.2z"/>
<path class="st5" d="M187.1,110.5c-2.5,4.6-6.1,8.2-9.2,12.3c-2.9,3.8-7,6.1-10.1,9.5c-2.1,2.2-3.6,4.7-3.8,7.9
	c-0.2,3,1.8,4.9,3.9,5.9c6.7,3.1,13.5,5.9,20.9,7.2c1.4,0.2,2.9,0.2,4.8-0.5c-5.7,6.8-11.7,12.5-17.9,18c-0.9,0.8-1.8,0.6-2.8,0.3
	c-8.3-2.8-16.8-4.6-25.4-6c-5.9-0.9-11.8-1.7-17.8-1.8c-4,0-8-0.7-12.1,0c-1,0.2-1.9,0.1-2.6-0.9c-1-1.4-1.2-2.1,0.6-3.2
	c11.3-6.5,22.5-13.2,33.3-20.4c12.7-8.5,25.3-17.1,36.5-27.5c0.4-0.4,1-0.6,1.4-0.9C186.9,110.4,187,110.4,187.1,110.5z
	 M158.9,152.3c-2.2,0-3.9,1.6-3.9,3.9c0,1.9,2.2,4.1,4.2,4.1c2.1,0,3.7-1.9,3.7-4.2C162.9,154,161.2,152.3,158.9,152.3z"/>
<path class="st6" d="M19.2,195.2c0.9,8.4,5.7,13.8,13.5,16.5c9.6,3.3,19.5,5.2,29.3,7.4c10.3,2.3,20.8,3.9,31.2,5.4
	c7.2,1.1,12.9,5,18.7,8.7c1.2,0.7,0.9,1.3-0.3,1.8c-3.5,1.6-7.3,2-11.1,2.5c-6.1,0.7-12.2,1.3-18.3,1.5c-4.8,0.1-9.6-0.7-14.3-1.6
	c-8.7-1.6-17.3-3.7-25.6-7c-7.8-3.1-15.3-7-21.4-12.9c-7.3-7-11.3-15.4-10.8-25.7c0.1-1.2,0.1-2.5,0.1-3.7c1.1,0.1,1.6,1.1,2.3,1.7
	C14.8,191.7,16.2,194.5,19.2,195.2z"/>
<path class="st1" d="M204.9,258.2c-7-1.8-13.7-4.5-20.4-7c-3.7-1.4-7.3-3.1-11-4.7c-0.9-0.4-2.2-0.9-1.9-2.2
	c0.2-1.2,1.4-1.7,2.4-1.9c3-0.8,6.1-0.8,9.2-0.5c13,1.3,25.6,4.7,37.9,8.9c10.6,3.7,20.7,8.5,30.8,13.3
	c12.3,5.9,24.2,12.4,36.1,18.9c6.7,3.6,13.3,7.6,19.9,11.4c0.6,0.3,1.2,0.6,1.5,1.3c-2.6,1.1-5.3,0.3-7.6-0.6
	c-8.8-3.4-17.5-7-26.2-10.7c-12.3-5.3-24.7-10.1-37-15.5c-5.2-2.3-10.4-4.5-15.7-6.6c-4.7-1.9-9.4-4.1-14.4-5.2
	C206.9,256.6,205.6,256.6,204.9,258.2z"/>
<path class="st5" d="M296.2,198.1c-5-0.8-8.5-3.1-11.9-5.3c-1.5-1-2.2-1-3.4,0.5c-6.7,8.6-13.6,17.1-20.3,25.7c-1,1.3-1.7,1.3-3,0.5
	c-6.9-4.5-13.6-9.2-20.3-13.9c-1.3-0.9-0.5-1.5,0-2.1c3-3.8,6.1-7.6,9.2-11.4c4.4-5.5,8.9-10.9,13.3-16.4c0.1-0.2,0.4-0.3,0.8-0.6
	c0,1.5,0.9,2.3,1.7,3.2c3.9,4.1,8.4,7.5,13.1,10.6c4.2,2.7,5.6,2.7,9.8-0.4c0.4-0.3,0.7-0.5,1-0.1
	C289,191.8,292.8,194.2,296.2,198.1z"/>
<path class="st7" d="M147.3,122.6c3.9-8.1,9.2-14.8,14.4-21.4c5.2-6.7,10.5-13.2,15.9-19.8c1.4-1.7,3.1-3.2,5.2-4.2
	c2-0.9,3.5-0.6,4.6,1.4c3.1,5.3,6.3,10.6,9.5,15.8c0.7,1.2,0.6,2-0.3,3.1c-4.6,5.6-9.9,10.5-15.4,15.2c-0.5,0.5-1.3,0.8-2,1
	c-10.2,2.9-20.4,5.8-30.6,8.8C148.3,122.5,148,122.5,147.3,122.6z"/>
<path class="st8" d="M95.2,117c-2-3.8-2.9-7.6-3.1-11.6c-0.4-11.3-3.3-21.9-7.7-32.2c-0.5-1.2-0.1-1.8,0.5-2.7
	c5.1-7.3,8.5-15.2,8.6-24.2c0-0.6,0-1.1,0.6-1.5c2.4-1.8,7.1-1.5,9.2,0.7c5.7,6,7.4,13.2,5.9,21.2c-1.7,9.5-6.5,17.5-12.4,25
	c-0.9,1.1-1.3,2.2-1.3,3.6c0.1,4.2,0,8.5,0,12.7c0,0.7,0,1.3,0.1,2C96.6,113.4,96.6,113.4,95.2,117z"/>
<path class="st3" d="M138.3,195.7c5.9,0.6,11.7,1.6,17.4,3c13.4,3.2,26.3,7.8,37.4,16.2c3.5,2.6,6.9,5.5,9.8,8.9
	c1,1.1,2.6,2.4,1.9,3.8c-0.8,1.6-2.9,0.7-4.4,0.6c-2.2-0.3-4.4-0.8-6.5-1.7c-13.1-5.1-26.7-8.7-40.5-11.4c-1.9-0.4-3.1-1.2-4.1-2.8
	c-3.2-4.9-6.6-9.7-10-14.6C138.9,197.2,138.3,196.7,138.3,195.7z"/>
<path class="st9" d="M72.6,219.2c-0.9-3.3-0.7-3.4,2.8-3.5c6.7-0.2,13.4,0,20.1,0.6c7.6,0.6,15.2,1.8,22.8,3.1
	c11.2,1.9,22.3,4.6,33.3,7.5c2,0.5,4.4,0.6,6.1,2.4c0.2,0.3,0.6,0.2,0.8-0.1c2.9,4.1,5.7,8.3,8.6,12.4c-0.2,0.2-0.3,0.4-0.5,0.5
	c-8.6-3.6-17.4-6.6-26.6-8.1c-7.7-1.2-15.3-1.7-23.1-0.9c-1.1,0.1-2,0.3-3-0.5c-8-6.4-17.1-9.9-27.4-10.9
	C81.9,221.2,77.3,220.1,72.6,219.2z"/>
<path class="st10" d="M204.9,258.2c0.7-1.6,2-1.6,3.5-1.3c5,1.1,9.6,3.4,14.4,5.2c5.3,2.1,10.5,4.3,15.7,6.6
	c12.2,5.4,24.7,10.2,37,15.5c8.7,3.7,17.4,7.3,26.2,10.7c2.3,0.9,5,1.8,7.6,0.6c4.1,1.4,7.6,4,11.3,6.2c9.3,5.5,18.4,11.2,27.6,16.8
	c2.6,1.6,2.6,2.1,1,4.7c-1,1.6-1.8,3.3-3.1,4.8c-1.3,1.4-2.7,1.5-4.5,1.4c-4.8-0.3-7.6-3.6-10.4-6.9c1.3-0.4,1.6-1.2,0.9-2.4
	c-0.5-0.8-0.8-1.6-0.8-2.6c-0.3-3.9-2.4-6.5-6-7.5c-0.3-0.1-0.7-0.1-0.9-0.3c-6.4-4.2-14.1-5.8-20.8-9.4c-1.1-0.6-2.6-0.7-3.8,0.3
	c-3.5-1-6.3-3.3-9.4-4.9c-9.3-4.6-18.5-9.4-27.8-14c-7.2-3.5-14.6-6.8-21.9-10c-11.2-5-22.6-9.5-34.4-13
	C205.8,258.7,205.3,258.4,204.9,258.2z"/>
<path class="st11" d="M85.5,119.5c-3.8-5.6-7.1-10.7-10.8-15.6c-1.6-2.1-1.5-3.7-0.4-5.9c1.9-3.8,3-7.9,3.9-12
	c0.8-3.4,0-6.6-0.9-9.8c-1.4-4.4-2.7-8.9-3.3-13.5c-1.1-8.5,1.2-15.7,7.5-21.6c2.4-2.3,5.2-2.6,8.1-2c2.5,0.5,4.9,1.4,7.4,2.4
	c-3.2,1.2-6.2,2.7-8.7,4.9c-6.3,5.6-11.2,16.4-6.7,24.6c2.3,4.2,3.8,8.7,5.2,13.2c1.5,5,2.5,10.1,3.4,15.3c0.1,0.4,0.1,0.9,0,1.2
	C88.4,106.8,86.8,112.9,85.5,119.5z"/>
<path class="st2" d="M176,116.3c-5.8,5.3-11.9,10.5-18.7,14.3c-4.2,2.3-9.4,2.6-14.2,3.5c-9.1,1.8-18.3,3.1-27.7,3.2
	c-4,0.1-8-0.3-11.9-1.1c-5.3-1.1-9.4-3.6-12.4-8.3c-4.3-6.7-4.5-6.6-2.5-14.3c0.4-1.6,0.6-3.2,2-4.5c0.7,2.4,1.3,4.8,2.2,7
	c4.2,10.6,13.3,16.1,24.8,15.5c7.9-0.4,15.3-2.9,22.8-5C152.3,123.1,164.1,119.7,176,116.3z"/>
<path class="st1" d="M19.2,195.2c-3-0.7-4.4-3.5-6.6-5.3c-0.7-0.6-1.2-1.6-2.3-1.7c0.7-7.6,3.6-14.6,6.8-21.4
	c3.2-7,6.6-13.9,10.5-20.6c4.6-8.2,9.7-16.1,16.6-22.5c3.2-3,6.5-4.6,9.9-4.6c-1.2,1.6-2.2,3.1-3.3,4.6c-5.7,7.5-10.6,15.4-14.5,24
	c-3,6.6-6.6,12.8-9.8,19.3c-3.3,6.8-6,13.8-7.1,21.4C19,190.6,19.2,192.9,19.2,195.2z"/>
<path class="st3" d="M97.7,136.3c10.4,3.8,21.1,2.9,31.8,1.8c7-0.7,13.9-2.1,20.8-3.7c0.4-0.1,0.8,0,1.5,0c-1.5,1.7-3.4,2.6-5.1,3.7
	c-10.7,6.9-21.4,13.6-32.5,19.9c-1.3,0.7-1.9,0.7-2.8-0.6c-4.7-7-9.4-13.9-14.1-20.8C97.4,136.5,97.5,136.4,97.7,136.3z"/>
<path class="st12" d="M205.4,144.3c-0.3-1.6,0.3-3,1.5-4.4c5-6.2,9.7-12.6,14.1-19.3c0.5-0.8,0.8-1.8,2.2-0.9
	c4.1,2.7,8.5,4.8,12.5,7.7c1.1,0.8,1.3,1.5,0.6,2.6c-1.2,2-1.9,3.9-5.3,3.3c-4-0.8-8.6,6.1-7.4,10.7c0.5,1.9,0,2.9-1.4,3.9
	c-2.5,2-5,4.1-8,5.4c-4.4,1.8-7.1,0.4-8.3-4.4C205.5,147.4,205.3,146,205.4,144.3z"/>
<path class="st10" d="M317.2,298.1c0.1-1,0.8-1.1,1.6-0.9c4,0.6,8,0.9,11.9,0.4c7.9-1,15.4-3.1,20.2-10.4c0.6-0.9,0.5-2.6,2.3-2.6
	c0.1,0.4,0.4,0.7,0.4,1.1c0.4,9.8,0.7,19.6-1.4,29.4c-0.8,3.8-0.8,3.9-4.1,1.9c-9.1-5.5-18.1-11-27.1-16.5
	C319.7,299.8,318.1,299.5,317.2,298.1z"/>
<path class="st4" d="M257.3,144.2c0,0.4-0.1,1.1-0.6,1.7c-2.5,3.5-4.9,7.1-7.9,10.2c-0.9,0.9-1.4,1.2-2.6,0.1
	c-5.2-4.8-10.4-9.5-15.7-14.2c-1.3-1.2-1.5-2,0.2-3.2c4.8-3.4,7.7-8.2,9-13.9c0.4-1.9,1.2-1.7,2.3-0.7c4.1,3.9,8.2,7.8,12.1,11.8
	C256.2,138.2,257.1,140.9,257.3,144.2z"/>
<path class="st3" d="M331.3,248.8c-18.4-1-34.5-7.7-50.5-15.8c3.8-3.2,8-4.6,12.6-4.8c8.9-0.3,16.5,3.3,23.6,8.2
	C322.1,239.9,326.7,243.9,331.3,248.8z"/>
<path class="st13" d="M286.3,177.9c0.2,3.1-1.1,5.8-2.2,8.5c-0.9,2.3-3.1,3-5.4,1.9c-3.8-1.7-7-4.4-10.2-7c-1.8-1.5-3.4-3.2-5.2-4.7
	c-0.9-0.8-1-1.6-0.5-2.6c0.8-1.4,1.3-2.9,2.3-4.2c2.6-3.6,3.9-7.5,3.7-11.9c0-0.6-0.4-1.5,0.3-1.8c0.8-0.3,1.1,0.5,1.5,1
	c3.8,4.6,8,8.9,12.2,13.1C285.1,172.4,286.5,174.9,286.3,177.9z"/>
<path class="st8" d="M76.4,82.3c-1.7-3.5-5-5-7.9-7c-10.9-7.8-11.8-20.7-7.7-30.6c0.4-0.8,0.9-1.6,1.4-2.4c1.1-1.6,2.4-2.2,4.4-1.2
	c5.6,2.6,5.7,2.5,5.1,8.6c-0.9,9.1,0.7,17.9,3.6,26.5C76,78.1,76.6,80,76.4,82.3z"/>
<path class="st12" d="M257.6,148c2.9,3.4,5.7,6.6,8.3,10.1c1.4,1.8,0.6,3.9-0.3,5.7c-1.1,2.1-2.4,4.1-3.8,6
	c-1.8,2.3-4.2,3.6-7.2,2.8c-3.1-0.8-6.3-1.8-7.4-5.4c-0.5-1.7,0-2.3,1.6-2.9c3.4-1.2,5.6-3.8,5.1-7.4
	C253.3,153,255.6,150.8,257.6,148z"/>
<path class="st6" d="M21.7,198.2c1-0.1,1.7,0.4,2.5,0.9c9.3,5.2,19.3,8.9,29.4,12.2c5.1,1.7,10.3,3.2,15.5,4.5
	c0.4,1.6,0.6,3-1.9,2.5c-11.2-2.3-22.4-4.7-33.4-8.1C27.9,208.2,23.6,204.3,21.7,198.2z"/>
<path class="st14" d="M136.3,126.1c2.5-4.2,4.6-7.8,6.9-11.3c4-6.2,8.3-12.3,13.4-17.6c2-2.1,4.3-3.9,7.1-5c0.7-0.3,1.6-0.5,2.1,0.1
	c0.7,0.8-0.4,1.3-0.8,1.8c-6.2,7.7-12.3,15.5-17.4,24c-0.1,0.2-0.4,0.4-0.4,0.6C146.1,124.6,141,124.4,136.3,126.1z"/>
<path class="st6" d="M299.7,300.6c1.2-1,2.7-0.9,3.8-0.3c6.7,3.6,14.3,5.2,20.8,9.4c0.3,0.2,0.6,0.2,0.9,0.3c3.6,1,5.7,3.7,6,7.5
	c0.1,1,0.4,1.8,0.8,2.6c0.8,1.2,0.5,2-0.9,2.4c-6.6-6.9-14.5-12.1-22.8-16.8C305.5,304.2,302.1,303.1,299.7,300.6z"/>
<path class="st10" d="M81.6,64.1c0.3-4.6,1.9-8.8,4.6-12.7c0.7-1.1,1.5-1.3,2.2,0c1.3,2.5,2.2,4.8,0.8,7.7c-1.5,3.1-3,6.3-4.9,9.2
	c-0.3,0.4-0.5,1-1,0.9c-0.7,0-0.8-0.8-0.9-1.3C82,66.7,81.4,65.4,81.6,64.1z"/>
<path class="st13" d="M97.4,114.6c3,6.3,7,11.4,13.3,14.6c-6.3-1.2-11.2-4.4-14.3-9.9C95.4,117.6,96.8,116.2,97.4,114.6z"/>
<path class="st10" d="M69.2,40c3.2,0,6,0,8.8,0c0.5,0,1.3,0.1,0.9,0.7c-0.8,1.3-1.8,2.7-3,3.5c-1.2,0.8-1.7-0.8-2.6-1.4
	C72.1,42.1,70.9,41.2,69.2,40z"/>
<path class="st6" d="M232.7,134.5c-0.4,0.5-0.6,0.8-0.8,0.9c-3.6,1.2-5.5,3.7-5.6,7.5c0,0.7-0.4,1.4-1.1,1.5c-1,0.1-0.8-0.9-0.8-1.5
	C224,138.5,228,134.2,232.7,134.5z"/>
<path class="st6" d="M252.7,155.2c0.3,3.9-1,6.4-3.8,7.8c-0.5,0.2-0.9,0.5-1.3,0c-0.3-0.4-0.4-1.2,0-1.3c2.8-1.1,3.3-3.8,4.4-6.2
	C252.1,155.3,252.3,155.3,252.7,155.2z"/>
<path class="st2" d="M75.1,91.2c-1,2.6-2.1,5.3-3.1,8C70.7,97.8,72,93.9,75.1,91.2z"/>
<path class="st1" d="M238.3,123.8c-0.4,0.6,0,2-1.3,2c-1-0.1-2.4-0.7-2.3-1.8c0.1-1.1,1.5-1.4,2.5-1.5
	C237.9,122.4,238.3,122.9,238.3,123.8z"/>
<path class="st9" d="M167.1,241.5c0.2,0.3,0.3,0.6,0.5,0.9c-0.5,0.2-0.7-0.1-0.9-0.4C166.8,241.9,167,241.7,167.1,241.5z"/>
<path class="st5" d="M187.3,109.8c0.1-0.2,0.1-0.7,0.5-0.5c0.3,0.2,0,0.5-0.2,0.7C187.5,109.9,187.4,109.9,187.3,109.8z"/>
<path class="st3" d="M97.3,136.6c-0.1-0.2-0.3-0.4,0-0.6c0.1,0,0.2,0.2,0.4,0.2C97.5,136.4,97.4,136.5,97.3,136.6z"/>
<path class="st5" d="M187.6,110c-0.2,0.2-0.3,0.3-0.5,0.5c-0.1-0.1-0.1-0.1-0.2-0.2c0.2-0.2,0.3-0.3,0.5-0.5
	C187.4,109.9,187.5,109.9,187.6,110z"/>
<path class="st0" d="M44.2,162c0,1.7-0.7,2.9-2.1,3.1c-1.3,0.2-2.2-0.9-2.2-2.1c0-1.4,0.6-2.9,2.3-3C43.4,160,44.2,160.8,44.2,162z"
	/>
<path class="st0" d="M40.1,196c0-1.7,0.8-2.9,2.2-3.1c1.3-0.2,2.2,0.9,2.2,2.1c0,1.4-0.6,2.9-2.3,3C40.9,198.1,40.1,197.2,40.1,196z
	"/>
<path class="st0" d="M61.7,201.1c0,1.6-0.6,2.6-2.3,2.7c-1.3,0-2.1-0.7-2.1-1.9c0-1.5,0.7-2.9,2.4-3C61,198.7,61.6,199.8,61.7,201.1
	z"/>
<path class="st0" d="M36.7,178.1c-0.1,1.2-0.8,2.2-2.4,2.2c-1.5-0.1-2.1-1.2-1.9-2.4c0.1-1.3,0.8-2.6,2.5-2.5
	C36.2,175.4,36.7,176.5,36.7,178.1z"/>
<path class="st0" d="M50.8,178.2c1.4,0.1,2.3,0.8,2.2,2.2c-0.1,1.4-0.7,2.7-2.3,2.8c-1.4,0.1-2.1-0.8-2.1-2.2
	C48.7,179.6,49.2,178.4,50.8,178.2z"/>
<path class="st4" d="M158.9,152.3c2.3,0,4,1.6,4,3.8c0,2.3-1.6,4.2-3.7,4.2c-2,0-4.3-2.2-4.2-4.1C155,154,156.7,152.3,158.9,152.3z"
	/>
</svg>
